<svg style="margin-top: 16px; margin-bottom: 16px;" x="0px" y="0px" width="100%" viewBox="-0.491 -0.384 431 94" enable-background="new -0.491 -0.384 431 94"
	 xml:space="preserve" preserveAspectRatio="xMidYMid meet" version="1.1" xmlns="http://www.w3.org/2000/svg" xmlns:xlink="http://www.w3.org/1999/xlink">
	<title>NIJM Webdesign &amp; Hosting logo</title>
  	<desc>NIJM Webdesign &amp; Hosting logo</desc>
<defs>
</defs>
<path fill="#000" d="M110.642,4.112h25.137L168.58,52.31V4.112h25.373v87.114H168.58l-32.625-47.832v47.832
	h-25.313V4.112z"/>
<path fill="#000" d="M212.056,4.112h26.978v87.114h-26.978V4.112z"/>
<path fill="#000" d="M288.388,4.112h26.978v47.33c0,9.937-0.882,17.498-2.644,22.685
	c-1.764,5.187-5.308,9.579-10.636,13.182c-5.328,3.604-12.153,5.404-20.472,5.404c-8.795,0-15.609-1.189-20.442-3.566
	c-4.833-2.377-8.566-5.853-11.201-10.428s-4.188-10.229-4.664-16.966l25.729-3.506c0.039,3.843,0.375,6.696,1.011,8.558
	c0.633,1.861,1.701,3.367,3.208,4.516c1.031,0.754,2.496,1.129,4.398,1.129c3.01,0,5.219-1.117,6.626-3.354
	c1.405-2.235,2.108-6.006,2.108-11.31V4.112z"/>
<polygon fill="#0BA859" points="408.026,4.115 408.026,18.357 408.074,18.231 408.074,63.579 430.119,63.579
	430.119,4.115 "/>
<polygon fill="#0BA859" points="407.98,72.744 407.98,77.153 408.027,77.114 408.027,91.153 430.073,91.153
	430.073,72.744 "/>
<polygon fill="#086534" points="394.771,4.112 381.215,57.118 367.563,4.112 354.225,4.112 332.162,4.112
	332.162,91.227 354.208,91.227 354.208,24.792 354.225,24.857 371.163,91.227 391.118,91.227 408.058,24.978 408.058,4.112 "/>
<path fill="none" d="M69.056,20.534c0.176-1.512,0.147-2.575-1.415-3.231c-0.476-0.2-0.929-0.65-1.197-1.101
	c-0.137-0.23-0.28-0.396-0.432-0.512v20.173C67.399,30.862,68.446,25.762,69.056,20.534z"/>
<path fill="none" d="M13.213,48.51c-1.135-1.812-1.936-3.896-1.124-5.822c1.028-2.439-0.122-3.849-1.513-5.429
	c-0.721-0.818-1.306-1.754-1.968-2.626c-0.224-0.294-0.493-0.554-0.869-0.972c-0.948,7.627-0.08,14.818,2.264,22.148
	c1.254-2.217,2.412-4.208,3.491-6.24C13.623,49.327,13.404,48.814,13.213,48.51z"/>
<path fill="#0BA859" d="M57.508,90.231c-3.505-0.118-6.998-0.59-10.775-0.926c0.366-0.784,0.502-1.113,0.668-1.427
	c2.797-5.258,5.615-10.506,8.379-15.781c0.381-0.728,0.81-1.097,1.642-1.149c2.436-0.153,4.296-1.355,5.828-3.192
	c0.323-0.388,0.939-0.755,1.423-0.758c0.446-0.002,0.893,0.002,1.339,0.001V62.47c-0.129,0-0.258,0.001-0.388,0
	c-0.175,0-0.351-0.077-0.162-0.032c-0.819-1.771-1.536-3.166-2.096-4.621c-0.192-0.5-0.143-1.201,0.047-1.72
	c0.837-2.277,1.72-4.54,2.598-6.805V35.863c-1.707,6.152-3.94,12.151-6.638,18.019c-0.165,0.358-0.781,0.785-1.135,0.744
	c-4.242-0.495-7.16,0.985-9.133,4.729c-0.083,0.157-0.198,0.299-0.333,0.502c-4.993-1.505-9.608-3.662-13.953-6.381v5.342
	c4.011,2.268,8.248,4.125,12.758,5.485c0.419,0.126,0.869,0.464,1.101,0.829c0.506,0.799,0.795,1.739,1.334,2.51
	c0.514,0.735,1.232,1.329,1.968,2.096c-3.175,5.955-6.376,11.958-9.607,18.018c-2.66-0.845-5.163-1.902-7.554-3.135v6.368h31.192
	v-1.247C63.229,90.15,60.396,90.327,57.508,90.231z"/>
<path fill="#0BA859" d="M87.017,7.467c-1.876,0.023-3.754,0.152-5.625,0.307c-0.717,0.06-0.97-0.278-1.376-0.784
	c-0.888-1.106-1.93-2.091-2.919-3.118h-8.98c-0.322,0.181-0.65,0.364-1,0.536c-0.192-0.183-0.392-0.355-0.586-0.536h-0.518V15.69
	c0.151,0.115,0.294,0.281,0.432,0.512c0.268,0.45,0.721,0.9,1.197,1.101c1.562,0.656,1.591,1.72,1.415,3.231
	c-0.61,5.228-1.656,10.328-3.043,15.329v13.429c1.486-3.829,2.956-7.662,4.147-11.58c1.457-4.788,2.054-9.835,3.019-14.771
	c0.222-1.136,0.382-2.283,0.571-3.425c0.153-0.055,0.305-0.109,0.458-0.163c1.948,3.521,4.075,6.959,5.808,10.582
	c3.781,7.903,5.353,16.352,5.797,25.042c0.049,0.97-0.179,1.568-1.052,2.104c-1.608,0.986-2.612,2.48-3.219,4.273
	c-0.148,0.438-0.697,1.053-1.07,1.059c-4.818,0.074-9.639,0.06-14.458,0.057v4.529c4.822-0.017,9.646,0.031,14.468,0.006
	c0.937-0.005,1.544,0.174,1.901,1.095c0.174,0.447,0.506,0.929,0.904,1.18c1.602,1.007,1.605,2.365,1.192,3.986
	c-0.907,3.556-1.682,7.146-2.586,10.703c-0.11,0.434-0.612,0.891-1.049,1.105c-4.762,2.341-9.708,3.915-14.83,4.668v1.247h31.263
	V72.418c-2.819,3.274-6.038,6.185-9.712,8.761c0.577-2.94,1.065-5.612,1.66-8.261c0.083-0.374,0.655-0.856,1.053-0.912
	c3.509-0.484,5.91-2.378,7-5.622v-6.421c-0.411-0.038-0.693-0.311-0.967-0.75c-1.058-1.698-2.61-2.843-4.551-3.262
	c-1.158-0.25-1.444-0.795-1.466-1.843c-0.104-5.014-0.907-9.936-2.132-14.791c-1.896-7.514-5.111-14.444-9.43-20.885
	c-0.251-0.375-0.477-0.768-0.551-0.888c0.938-1.69,1.683-3.12,2.528-4.49c0.208-0.337,0.733-0.666,1.124-0.68
	c4.393-0.146,8.788-0.295,13.183-0.3c0.753,0,1.508,0.045,2.262,0.104V7.452C93.786,7.448,90.396,7.425,87.017,7.467z"/>
<path fill="#0BA859" d="M45.106,24.492c5.976-3.871,12.421-6.765,19.25-8.833c0.664-0.201,1.197-0.317,1.656,0.031
	V3.871h-6.489c1.547,1.264,3.061,2.579,4.526,3.97c0.296,0.281,0.465,0.694,0.52,0.777c-0.082,1.563-0.32,2.433-1.818,2.874
	c-10.472,3.091-19.654,8.241-27.93,14.813v5.808C38.08,29.354,41.509,26.821,45.106,24.492z"/>
<path fill="#0BA859" d="M28.619,80.858c-6.731-4.762-11.932-10.842-15.667-18.146
	c-0.246-0.48-0.289-1.269-0.065-1.746c1.311-2.791,2.697-5.55,4.15-8.271c0.188-0.353,0.892-0.553,1.381-0.607
	c1.518-0.169,3.073-0.104,4.563-0.389c0.801-0.153,1.319-0.155,1.965,0.37c3.128,2.544,6.418,4.797,9.873,6.749v-5.342
	c-2.559-1.602-5.024-3.396-7.416-5.371c1.647-2.915,1.52-5.859-0.258-8.71c2.43-2.603,4.995-5.017,7.673-7.283v-5.808
	c-3.365,2.672-6.584,5.573-9.674,8.677c-0.939,0.942-1.663,1.466-3.24,1.062c-1.473-0.377-3.228,0.096-4.803,0.44
	c-0.791,0.174-1.251,0.202-1.727-0.47c-1.948-2.75-3.949-5.465-5.86-8.241c-0.275-0.4-0.354-1.116-0.21-1.593
	c2.678-8.825,6.981-16.274,12.943-22.309H3.636v87.118H34.82v-6.368C32.667,83.512,30.603,82.262,28.619,80.858z M7.739,33.661
	c0.376,0.418,0.646,0.678,0.869,0.972c0.662,0.872,1.247,1.808,1.968,2.626c1.391,1.58,2.541,2.989,1.513,5.429
	c-0.812,1.927-0.011,4.011,1.124,5.822c0.191,0.305,0.41,0.817,0.281,1.06c-1.079,2.032-2.236,4.023-3.491,6.24
	C7.659,48.479,6.792,41.288,7.739,33.661z"/>
<path fill="#0BA859" d="M94.884,3.871c0.82,0.832,1.618,1.694,2.391,2.59v-2.59H94.884z"/>
<rect fill="none" width="431" height="94"/>
</svg>
