<svg x="0px" y="0px" width="100%" viewBox="0.2 0.5 370 150" enable-background="new 0.2 0.5 370 150"
	 xml:space="preserve" preserveAspectRatio="xMidYMid meet" version="1.1" xmlns="http://www.w3.org/2000/svg" xmlns:xlink="http://www.w3.org/1999/xlink">
<title>NIJM Webdesign logo</title>
<desc>NIJM Webdesign logo</desc>
<g id="XMLID_12_">
	<path fill="#0BA859" d="M162.2,138l-5.2-21.2h2.7l3,13.9c0.3,1.5,0.6,2.9,0.8,4.3c0.5-2.3,0.8-3.6,0.9-3.9l3.8-14.3h3.1l2.8,10.7
		c0.7,2.7,1.2,5.2,1.5,7.5c0.3-1.3,0.6-2.9,1-4.6l3.1-13.6h2.6l-5.4,21.2h-2.5l-4.2-16.1c-0.3-1.3-0.6-2.2-0.6-2.5
		c-0.2,1-0.4,1.8-0.6,2.5l-4.2,16.1H162.2z"/>
	<path fill="#0BA859" d="M186.9,138v-21.2h14.3v2.5h-11.6v6.5h10.9v2.5h-10.9v7.2h12.1v2.5H186.9z"/>
	<path fill="#0BA859" d="M207.2,138v-21.2h7.4c1.5,0,2.7,0.2,3.6,0.6c0.9,0.4,1.6,1.1,2.1,2c0.5,0.9,0.8,1.8,0.8,2.8
		c0,0.9-0.2,1.8-0.7,2.6c-0.5,0.8-1.1,1.4-2.1,1.9c1.2,0.4,2.1,1,2.8,1.9c0.6,0.9,1,2,1,3.2c0,1-0.2,1.9-0.6,2.8s-0.9,1.5-1.4,2
		c-0.6,0.5-1.3,0.8-2.2,1s-1.9,0.4-3.2,0.4H207.2z M209.8,125.7h4.3c1.2,0,2-0.1,2.5-0.2c0.7-0.2,1.2-0.6,1.5-1.1
		c0.3-0.5,0.5-1.1,0.5-1.9c0-0.7-0.2-1.3-0.5-1.9c-0.3-0.5-0.8-0.9-1.3-1.1s-1.6-0.3-3-0.3h-3.9V125.7z M209.8,135.5h4.9
		c0.8,0,1.4,0,1.8-0.1c0.6-0.1,1.1-0.3,1.5-0.6s0.7-0.7,1-1.2s0.4-1.1,0.4-1.8c0-0.8-0.2-1.5-0.6-2.1c-0.4-0.6-0.9-1-1.6-1.2
		s-1.6-0.4-2.9-0.4h-4.6V135.5z"/>
	<path fill="#086534" d="M227.8,138v-21.2h6.8c1.5,0,2.7,0.1,3.5,0.3c1.1,0.3,2.1,0.8,2.9,1.5c1,0.9,1.8,2.2,2.3,3.6
		c0.5,1.5,0.8,3.2,0.8,5c0,1.6-0.2,3-0.5,4.3c-0.3,1.2-0.8,2.3-1.3,3.1s-1.1,1.5-1.8,1.9c-0.7,0.5-1.4,0.8-2.4,1.1
		c-0.9,0.2-2,0.4-3.2,0.4H227.8z M230.4,135.5h4.2c1.3,0,2.3-0.1,3.1-0.4c0.7-0.3,1.3-0.6,1.8-1.1c0.6-0.7,1.1-1.6,1.4-2.7
		s0.5-2.5,0.5-4.1c0-2.2-0.3-3.9-1-5.1c-0.7-1.2-1.5-2-2.5-2.4c-0.7-0.3-1.8-0.4-3.4-0.4h-4.1V135.5z"/>
	<path fill="#086534" d="M249.8,138v-21.2h14.3v2.5h-11.6v6.5h10.9v2.5h-10.9v7.2h12.1v2.5H249.8z"/>
	<path fill="#086534" d="M269.3,131.2l2.5-0.2c0.1,1.1,0.4,1.9,0.8,2.6s1.1,1.2,2,1.6c0.9,0.4,1.9,0.6,3,0.6c1,0,1.9-0.2,2.6-0.5
		c0.8-0.3,1.3-0.8,1.7-1.3s0.6-1.2,0.6-1.8c0-0.7-0.2-1.2-0.5-1.7s-1-0.9-1.8-1.3c-0.5-0.2-1.7-0.6-3.5-1c-1.8-0.5-3.1-0.9-3.8-1.3
		c-0.9-0.5-1.6-1.2-2.1-2c-0.5-0.8-0.7-1.7-0.7-2.6c0-1.1,0.3-2.1,0.8-3s1.4-1.6,2.5-2.1c1.1-0.5,2.3-0.7,3.6-0.7
		c1.5,0,2.8,0.3,3.9,0.8s2,1.3,2.6,2.2c0.6,1,0.9,2.1,1,3.3l-2.5,0.2c-0.1-1.3-0.6-2.4-1.4-3c-0.8-0.7-1.9-1-3.4-1
		c-1.6,0-2.7,0.3-3.4,0.9c-0.7,0.6-1.1,1.4-1.1,2.3c0,0.8,0.3,1.4,0.8,1.9c0.5,0.5,1.8,1,3.9,1.5c2.1,0.5,3.6,1,4.4,1.4
		c1.1,0.6,2,1.3,2.5,2.2c0.5,0.9,0.8,1.9,0.8,3c0,1.1-0.3,2.2-0.9,3.2s-1.5,1.8-2.6,2.3c-1.1,0.6-2.4,0.8-3.8,0.8
		c-1.8,0-3.3-0.3-4.5-0.8c-1.2-0.6-2.2-1.4-2.8-2.5S269.4,132.6,269.3,131.2z"/>
	<path fill="#086534" d="M291.1,138v-21.2h2.6V138H291.1z"/>
	<path fill="#086534" d="M309.6,129.7v-2.5l8.3,0v7.9c-1.3,1.1-2.6,1.9-4,2.5c-1.4,0.6-2.8,0.8-4.2,0.8c-1.9,0-3.7-0.4-5.3-1.3
		c-1.6-0.9-2.8-2.2-3.6-3.9c-0.8-1.7-1.2-3.6-1.2-5.7c0-2.1,0.4-4,1.2-5.8c0.8-1.8,2-3.1,3.5-4c1.5-0.9,3.2-1.3,5.2-1.3
		c1.4,0,2.7,0.2,3.9,0.7c1.2,0.5,2.1,1.2,2.7,2.1s1.2,2,1.5,3.5l-2.4,0.7c-0.3-1.1-0.7-1.9-1.1-2.5c-0.4-0.6-1.1-1.1-1.9-1.5
		s-1.7-0.6-2.7-0.6c-1.2,0-2.2,0.2-3.1,0.6c-0.9,0.4-1.6,0.9-2.1,1.5s-0.9,1.3-1.2,2.1c-0.5,1.3-0.8,2.7-0.8,4.3
		c0,1.9,0.3,3.5,0.9,4.7c0.6,1.3,1.5,2.2,2.6,2.8s2.4,0.9,3.7,0.9c1.1,0,2.2-0.2,3.3-0.7c1.1-0.5,1.9-1,2.4-1.5v-3.9H309.6z"/>
	<path fill="#086534" d="M323.9,138v-21.2h2.7l10.4,16.6v-16.6h2.5V138h-2.7l-10.4-16.7V138H323.9z"/>
</g>
<polygon id="XMLID_11_" fill="#0BA859" points="346.7,0.3 346.7,24.6 346.8,24.4 346.8,101.8 372.4,101.8 372.4,0.3 "/>
<path id="XMLID_9_" fill="#1B2935" d="M0.5,0.2h29.3L68,56.3V0.2h29.5v101.4H68L30,45.9v55.7H0.5V0.2z"/>
<path id="XMLID_7_" fill="#1B2935" d="M118.6,0.2H150v101.4h-31.4V0.2z"/>
<path id="XMLID_5_" fill="#1B2935" d="M207.4,0.2h31.4v55.1c0,11.6-1,20.4-3.1,26.4c-2.1,6-6.2,11.1-12.4,15.3
	c-6.2,4.2-14.1,6.3-23.8,6.3c-10.2,0-18.2-1.4-23.8-4.2c-5.6-2.8-10-6.8-13-12.1c-3.1-5.3-4.9-11.9-5.4-19.7l29.9-4.1
	c0,4.5,0.4,7.8,1.2,10c0.7,2.2,2,3.9,3.7,5.3c1.2,0.9,2.9,1.3,5.1,1.3c3.5,0,6.1-1.3,7.7-3.9c1.6-2.6,2.5-7,2.5-13.2V0.2z"/>
<polygon id="XMLID_2_" fill="#086534" points="331.2,0.2 315.4,61.9 299.5,0.2 258.3,0.2 258.3,101.6 284,101.6 284,24.3
	303.7,101.6 327,101.6 346.7,24.5 346.7,0.2 "/>
<rect id="XMLID_1_" x="346.8" y="116.8" fill="#0BA859" width="25.7" height="21.4"/>
<rect id="_x3C_Segment_x3E__1_" fill="none" width="373" height="138"/>
</svg>
