<svg style="margin-top:32px;" x="0px" y="0px" width="300px" viewBox="0.2 0.5 532 150" enable-background="new 0.2 0.5 532 150"
	 xml:space="preserve" preserveAspectRatio="xMidYMid meet" version="1.1" xmlns="http://www.w3.org/2000/svg" xmlns:xlink="http://www.w3.org/1999/xlink">
<defs>
</defs>
<polygon id="XMLID_39_" fill="#1B2935" points="155.5,124 196.6,124 176.4,138.7 154.7,138.7 154.7,123.6 "/>
<polygon id="XMLID_38_" fill="#1B2935" points="155.5,147.6 196.6,147.6 176.4,132.9 154.7,132.9 154.7,148 "/>
<path id="XMLID_37_" fill="#0BA859" d="M114.8,94.9c0.2-0.1,0.5-0.3,0.7-0.5c-2,1.1-4.1,2.1-6.3,2.9C111.1,96.6,113,95.8,114.8,94.9
	z"/>
<path id="XMLID_36_" fill="#0BA859" d="M117.2,79.3c-0.4-0.2-0.7-0.7-0.9-1.2c-0.4-0.9-1-1.1-1.9-1.1c-4.8,0-9.5,0-14.3,0
	c-0.4,0-0.9,0-1.3,0c-0.5,0-1.1,0.4-1.4,0.7c-1.5,1.8-3.3,3-5.7,3.1c-0.8,0.1-1.2,0.4-1.6,1.1c-2.7,5.2-5.5,10.4-8.3,15.6
	c-0.2,0.3-0.3,0.6-0.7,1.4c3.7,0.3,7.2,0.8,10.6,0.9c2.8,0.1,5.6-0.1,8.4-0.5c3.1-0.4,6.1-1.2,9-2.2c2.2-0.8,4.3-1.8,6.3-2.9
	c0.2-0.2,0.3-0.4,0.3-0.6c0.9-3.5,1.7-7,2.6-10.6C118.8,81.6,118.8,80.3,117.2,79.3z"/>
<path id="XMLID_35_" fill="#0BA859" d="M57,14.8c-5.9,6-10.1,13.3-12.8,22c-0.1,0.5-0.1,1.2,0.2,1.6c1.9,2.7,3.9,5.4,5.8,8.1
	c0.5,0.7,0.9,0.6,1.7,0.5c1.6-0.3,3.3-0.8,4.7-0.4c1.6,0.4,2.3-0.1,3.2-1c3-3.1,6.2-5.9,9.5-8.6c8.2-6.5,17.2-11.6,27.5-14.6
	c1.5-0.4,1.7-1.3,1.8-2.8c-0.1-0.1-0.2-0.5-0.5-0.8c-1.4-1.4-2.9-2.7-4.5-3.9c0,0-9.7-7.8-19.5-11.3C67.5,6,57,14.8,57,14.8z"/>
<path id="XMLID_34_" fill="#0BA859" d="M114.7,18.5c0.2,0.1,0.4,0.1,0.6,0.1c1.8-0.2,3.7-0.3,5.5-0.3c2.9,0,5.9,0,8.9,0
	c-9.2-10.9-23-17.8-38.4-17.8c-2.8,0-5.5,0.2-8.2,0.7c4.8,2.1,12.7,6.5,17.5,13.6c0.2,0.2,0.4,0.3,0.6,0.5c0.3-0.2,0.7-0.4,1-0.5
	h0.2c1.3-0.9,2.9-1.5,4.7-1.5C110.6,13.3,113.5,15.5,114.7,18.5z"/>
<path id="XMLID_33_" fill="#0BA859" d="M133.4,23.2L131,23c0,0-0.1,0-0.1,0c-0.7-0.1-1.4-0.1-2.1-0.1c-4.3,0-8.7,0.2-13,0.3
	c-0.2,0-0.5,0.1-0.8,0.3c-0.4,1.6-1.3,3-2.5,4.1c-0.1,0.2-0.3,0.5-0.4,0.7c0.1,0.1,0.3,0.5,0.5,0.9c4.3,6.4,7.4,13.2,9.3,20.6
	c1.2,4.8,2,9.6,2.1,14.6c0,1,0.3,1.6,1.4,1.8c1.9,0.4,3.4,1.5,4.5,3.2c0.3,0.4,0.5,0.7,1,0.7l7-1.1c2.3-5.7,3.6-11.9,3.6-18.5
	C141.6,40.4,138.6,31,133.4,23.2z"/>
<path id="XMLID_32_" fill="#0BA859" d="M124.1,82c-0.4,0.1-1,0.5-1,0.9c-0.5,2.4-1,4.9-1.5,7.6c5.1-3.8,9.4-8.5,12.7-13.9l-3.3,0.2
	C129.8,79.7,127.5,81.5,124.1,82z"/>
<path id="XMLID_31_" fill="#0BA859" d="M108.3,30.1c-0.2,0.1-0.3,0.1-0.5,0.2c-0.2,1.1-0.3,2.3-0.6,3.4c-1,4.9-1.5,9.8-3,14.6
	c-1.2,3.9-2.6,7.6-4.1,11.4c-0.9,2.2-1.7,4.5-2.6,6.7c-0.2,0.5-0.2,1.2,0,1.7c0.6,1.4,1.3,2.8,2.1,4.6c-0.2,0,0,0,0.2,0
	c0.1,0,0.3,0,0.4,0c4.8,0,9.5,0,14.3-0.1c0.4,0,0.9-0.6,1.1-1c0.6-1.8,1.6-3.2,3.2-4.2c0.9-0.5,1.1-1.1,1-2.1
	c-0.4-8.6-2-16.9-5.7-24.7C112.3,36.9,110.2,33.5,108.3,30.1z"/>
<path id="XMLID_30_" fill="#0BA859" d="M69.4,63.7c4.3,2.7,8.8,4.8,13.8,6.3c0.1-0.2,0.2-0.3,0.3-0.5c1.9-3.7,4.8-5.2,9-4.7
	c0.3,0,1-0.4,1.1-0.7c2.7-5.8,4.9-11.7,6.5-17.8c1.4-4.9,2.4-10,3-15.1c0.2-1.5,0.1-2.5-1.4-3.2c-0.5-0.2-0.9-0.6-1.2-1.1
	c-0.1-0.2-0.3-0.4-0.4-0.5c-0.5-0.3-1-0.2-1.6,0c-6.7,2-13.1,4.9-19,8.7c-3.5,2.3-6.9,4.8-10.1,7.5c-2.6,2.2-5.2,4.6-7.6,7.2
	c1.8,2.8,1.9,5.7,0.3,8.6C64.5,60.4,66.9,62.1,69.4,63.7z"/>
<path id="XMLID_29_" fill="#0BA859" d="M48.1,58.8C47,57,46.2,55,47,53.1c1-2.4-0.1-3.8-1.5-5.4c-0.7-0.8-1.3-1.7-1.9-2.6
	c-0.2-0.3-0.5-0.5-0.9-1c-0.9,7.5-0.1,14.6,2.2,21.8c1.2-2.2,2.4-4.2,3.4-6.2C48.5,59.6,48.3,59.1,48.1,58.8z"/>
<path id="XMLID_28_" fill="#0BA859" d="M84.4,77.7c-0.5-0.8-0.8-1.7-1.3-2.5c-0.2-0.4-0.7-0.7-1.1-0.8c-4.4-1.3-8.6-3.2-12.6-5.4
	c-3.4-1.9-6.7-4.1-9.7-6.7c-0.6-0.5-1.1-0.5-1.9-0.4c-1.5,0.3-3,0.2-4.5,0.4c-0.5,0.1-1.2,0.3-1.4,0.6c-1.4,2.7-2.8,5.4-4.1,8.2
	c-0.2,0.5-0.2,1.2,0.1,1.7C51.5,80,56.7,86,63.3,90.7c2,1.4,4,2.6,6.1,3.7c2.4,1.2,4.8,2.3,7.5,3.1c3.2-6,6.3-11.9,9.5-17.8
	C85.6,79,84.9,78.4,84.4,77.7z"/>
<path id="XMLID_27_" fill="#0BA859" d="M115,23.5c-0.1,0.1-0.3,0.2-0.4,0.4c-0.7,1.2-1.4,2.4-2.1,3.7
	C113.8,26.5,114.6,25.1,115,23.5z"/>
<path id="XMLID_25_" fill="#1B2935" d="M157,1.5h28.2l36.8,54.1V1.5h28.5v97.8h-28.5l-36.6-53.7v53.7H157V1.5z"/>
<path id="XMLID_23_" fill="#1B2935" d="M270.9,1.5h30.3v97.8h-30.3V1.5z"/>
<path id="XMLID_21_" fill="#1B2935" d="M356.6,1.5h30.3v53.1c0,11.2-1,19.6-3,25.5c-2,5.8-6,10.8-11.9,14.8c-6,4-13.6,6.1-23,6.1
	c-9.9,0-17.5-1.3-23-4c-5.4-2.7-9.6-6.6-12.6-11.7c-3-5.1-4.7-11.5-5.2-19.1l28.9-3.9c0,4.3,0.4,7.5,1.1,9.6
	c0.7,2.1,1.9,3.8,3.6,5.1c1.2,0.8,2.8,1.3,4.9,1.3c3.4,0,5.9-1.3,7.4-3.8c1.6-2.5,2.4-6.7,2.4-12.7V1.5z"/>
<polygon id="XMLID_20_" fill="#0BA859" points="490.9,1.5 490.9,17.5 491,17.4 491,68.3 515.8,68.3 515.8,1.5 "/>
<polygon id="XMLID_19_" fill="#0BA859" points="490.9,78.6 490.9,83.5 490.9,83.5 490.9,99.2 515.7,99.2 515.7,78.6 "/>
<polygon id="XMLID_18_" fill="#086534" points="476.1,1.5 460.8,61 445.5,1.5 430.5,1.5 405.8,1.5 405.8,99.3 430.5,99.3
	430.5,24.7 430.5,24.8 449.6,99.3 472,99.3 491,24.9 491,1.5 "/>
<path id="XMLID_16_" fill="#0BA859" d="M38,37.3c1.8-6.3,4.5-11.9,8-16.8v-19H31c-2.1,5.9-6,11-11.6,15.4c-5.7,4.4-10.9,7.4-15.7,9
	v16.8c9.2-3,17.1-7.7,23.9-14v69.7H46V79.4C31,60.2,38,37.3,38,37.3z"/>
<path id="XMLID_15_" fill="#304559" d="M162.9,107.3c0,0-78.9,11.8-117.8-15.9c-6.5-5.8-12.5-12.8-17.5-21.5l0.2-34.1
	c0,0-15.9,23.2-9.2,46.3c5.5,22.8,30.3,73.6,143.4,60.2l0.4-15.3c0,0,0,0,0,0L162.9,107.3z"/>
<path id="XMLID_13_" fill="#FFFFFF" d="M78.7,109.9l4.3,1.3l-4.2,13.6c-0.6,1.8-1.1,3.1-1.7,3.9c-0.8,1.1-1.9,1.9-3.2,2.3
	c-1.3,0.4-2.9,0.3-4.7-0.2c-2.1-0.7-3.6-1.8-4.3-3.3c-0.8-1.5-0.8-3.5-0.1-5.7l4.2,0.8c-0.3,1.2-0.4,2.2-0.3,2.8
	c0.2,0.9,0.8,1.5,1.8,1.8c1,0.3,1.7,0.2,2.3-0.2c0.6-0.4,1.1-1.5,1.7-3.2L78.7,109.9z"/>
<path id="XMLID_10_" fill="#FFFFFF" d="M103.1,137.3l-4.9-0.7l-1.2-5.3l-8.9-1.3l-2.6,4.8l-4.8-0.7l11.9-20.9l4.7,0.7L103.1,137.3z
	 M96.2,127.3l-1.8-8.7l-4.2,7.8L96.2,127.3z"/>
<path id="XMLID_7_" fill="#FFFFFF" d="M127.3,138.1l-4.9-0.2l-1.8-5.2l-9-0.3l-2,5l-4.8-0.2l9.5-22.1l4.8,0.2L127.3,138.1z
	 M119.2,129l-2.8-8.4l-3.3,8.2L119.2,129z"/>
<path id="XMLID_4_" fill="#FFFFFF" d="M130.8,138l-1.1-22.4l9.5-0.5c2.4-0.1,4.1,0,5.2,0.4c1.1,0.4,2,1,2.7,2c0.7,1,1.1,2.2,1.1,3.5
	c0.1,1.7-0.3,3.1-1.3,4.2c-0.9,1.1-2.4,1.9-4.3,2.3c1,0.5,1.8,1.1,2.5,1.8c0.7,0.7,1.6,1.8,2.8,3.5l2.9,4.2l-5.4,0.3l-3.5-4.7
	c-1.2-1.7-2.1-2.7-2.5-3.2c-0.4-0.4-0.9-0.7-1.4-0.9c-0.5-0.1-1.3-0.2-2.3-0.1l-0.9,0l0.4,9.4L130.8,138z M134.7,124.8l3.3-0.2
	c2.2-0.1,3.5-0.3,4.1-0.5c0.5-0.2,0.9-0.5,1.2-1c0.3-0.5,0.4-1,0.4-1.7c0-0.8-0.3-1.4-0.7-1.8c-0.4-0.4-1-0.7-1.7-0.8
	c-0.4,0-1.5,0-3.3,0.1l-3.5,0.2L134.7,124.8z"/>
<path id="XMLID_1_" fill="#FFFFFF" d="M155.2,130.5l-1.7-11.3l-0.3-5.3l4.6-0.2l0.3,5.3l-0.5,11.4L155.2,130.5z M154.6,136.4
	l-0.2-4.3l4.3-0.2l0.2,4.3L154.6,136.4z"/>
<rect id="_x3C_Segment_x3E__1_" fill="none" width="532" height="150"/>
</svg>
